# xmcd CD database file
#
# Track frame offsets:
#	150
#	22087
#	51864
#	72636
#	94527
#	121060
#	149286
#	165346
#	187672
#	212010
#	232054
#
# Disc length: 3324 seconds
#
# Revision: 0
# Processed by: cddbd v1.5.2PL0 Copyright (c) Steve Scherf et al.
# Submitted via: CDex 1.70beta2
#
DISCID=930cfa0b
DTITLE=Stacy Jones And The Wolf Tones - Red Dirt Road
DYEAR=2007
DGENRE=Blues
TTITLE0=Far From Home
TTITLE1=I Just Want To Be Loved For A While
TTITLE2=Big Bucks Band
TTITLE3=Tell Me Why
TTITLE4=Cry A Love Song
TTITLE5=Into The Purple Sky
TTITLE6=Shady Lady
TTITLE7=This Night
TTITLE8=Can't Get With It
TTITLE9=On My Mind
TTITLE10=Arms Of Love
EXTD=YEAR: 2007
EXTT0=
EXTT1=
EXTT2=
EXTT3=
EXTT4=
EXTT5=
EXTT6=
EXTT7=
EXTT8=
EXTT9=
EXTT10=
PLAYORDER=
